<?xml version="1.0" encoding="UTF-8" standalone="no"?><!DOCTYPE svg PUBLIC "-//W3C//DTD SVG 1.1//EN" "http://www.w3.org/Graphics/SVG/1.1/DTD/svg11.dtd"><svg width="100%" height="100%" viewBox="0 0 727 227" version="1.1" xmlns="http://www.w3.org/2000/svg" xmlns:xlink="http://www.w3.org/1999/xlink" xml:space="preserve" xmlns:serif="http://www.serif.com/" style="fill-rule:evenodd;clip-rule:evenodd;stroke-linejoin:round;stroke-miterlimit:2;"><rect id="primary---dark" serif:id="primary - dark" x="0" y="0" width="726.819" height="226.118" style="fill:none;"/><clipPath id="_clip1"><rect x="0" y="0" width="726.819" height="226.118"/></clipPath><g clip-path="url(#_clip1)"><g><g transform="matrix(35.1854,0,0,35.1854,528.434,222.114)"></g><text x="199.003px" y="222.114px" style="font-family:'Roboto-Regular', 'Roboto';font-size:35.185px;fill:#f7f4f2;">A<tspan x="224.412px 249.459px 271.741px 296.72px 305.051px 315.804px 343.549px 370.401px 397.527px 408.281px 433.328px 455.971px 480.297px 504.863px " y="222.114px 222.114px 222.114px 222.114px 222.114px 222.114px 222.114px 222.114px 222.114px 222.114px 222.114px 222.114px 222.114px 222.114px ">CTA, NON VERBA</tspan></text><path d="M103.8,148.391c-7.877,2.752 -16.34,4.248 -25.151,4.248c-42.122,-0 -76.32,-34.198 -76.32,-76.32c0,-42.121 34.198,-76.319 76.32,-76.319c12.607,0 24.505,3.064 34.988,8.486l-0,-6.347l41.331,0l0,148.361l-41.331,-0l-0,-6.347l-0,-67.834c-0,-19.31 -15.678,-34.987 -34.988,-34.987c-19.31,-0 -34.988,15.677 -34.988,34.987c0,19.311 15.678,34.988 34.988,34.988c9.868,0 18.788,-4.094 25.151,-10.675l0,47.759Zm204.786,2.109l-32.474,-0l0,-6.347l0,-27.844c7.45,14.182 18.735,26.04 32.474,34.191Zm119.301,-86.228c0.623,3.925 0.947,7.949 0.947,12.047c-0,42.122 -34.198,76.32 -76.32,76.32c-12.64,-0 -24.567,-3.08 -35.07,-8.529l0,0.07c-24.301,-12.578 -41.001,-37.827 -41.332,-66.978l0,-0.883c0,-0.165 -0.001,-0.329 -0.003,-0.494c-0.108,-7.795 -2.771,-14.976 -7.187,-20.746c-6.397,-8.355 -16.472,-13.747 -27.797,-13.747c-9.869,-0 -18.788,4.094 -25.151,10.675l-0,-47.759c7.876,-2.752 16.34,-4.248 25.151,-4.248c18.4,0 35.288,6.526 48.474,17.387c2.531,2.085 4.926,4.33 7.169,6.719c12.349,13.154 20.093,30.682 20.645,49.997c0.073,0.558 0.113,1.133 0.117,1.726c-0.002,0.163 -0.003,0.327 -0.003,0.49c-0,0.164 0.001,0.328 0.003,0.491c0.107,7.796 2.77,14.979 7.187,20.75c6.397,8.355 16.472,13.747 27.797,13.747c19.311,0 34.988,-15.677 34.988,-34.988c0,-19.31 -15.677,-34.987 -34.988,-34.987c-11.325,-0 -21.4,5.392 -27.797,13.747c-3.637,-14.33 -10.869,-27.233 -20.677,-37.692c13.186,-10.861 30.074,-17.387 48.474,-17.387c23.94,0 45.32,11.046 59.317,28.316l16.056,35.956Zm-221.75,24.688l-0,55.193l-0,6.347l-41.332,-0l0,-148.361l41.332,0l-0,74.18l-0,12.641Zm382.715,-60.643c13.997,-17.27 35.378,-28.317 59.318,-28.317c42.122,0 76.32,34.198 76.32,76.319c-0,7.161 -0.988,14.093 -2.836,20.666l-101.711,0c6.369,8.682 16.645,14.322 28.227,14.322c6.226,0 12.074,-1.629 17.141,-4.485l52.83,0c-11.781,26.958 -38.691,45.817 -69.971,45.817c-42.122,-0 -76.319,-34.198 -76.319,-76.32c-0,-4.099 0.324,-8.123 0.947,-12.048l16.054,-35.954Zm31.091,27.337l56.455,-0c-6.37,-8.682 -16.645,-14.322 -28.228,-14.322c-11.582,-0 -21.858,5.64 -28.227,14.322Zm-29.232,-55.654l-67.753,152.673l-45.132,0l-67.752,-152.673l45.129,0l45.189,101.831l40.402,-91.042c2.911,-6.56 9.414,-10.789 16.591,-10.789l33.326,0Z" style="fill:#f7f4f2;"/></g></g></svg>